<svg width="24" height="24" viewBox="0 0 24 24" fill="none" xmlns="http://www.w3.org/2000/svg">
<path d="M3 13.083C3 13.006 3 12.967 3.002 12.935C3.01775 12.6927 3.12111 12.4645 3.29279 12.2928C3.46446 12.1211 3.69273 12.0178 3.935 12.002C3.968 12 4.005 12 4.083 12H19.917C19.994 12 20.032 12 20.065 12.002C20.3073 12.0178 20.5355 12.1211 20.7072 12.2928C20.8789 12.4645 20.9822 12.6927 20.998 12.935C21 12.967 21 13.005 21 13.083C21 13.478 21 13.676 20.986 13.898C20.777 17.185 17.983 20.087 14.706 20.418C14.485 20.441 14.356 20.446 14.098 20.456C13.399 20.4836 12.6995 20.4982 12 20.5C11.35 20.5 10.636 20.483 9.902 20.456C9.644 20.446 9.515 20.441 9.295 20.419C6.017 20.087 3.223 17.185 3.015 13.898C3 13.676 3 13.478 3 13.083Z" stroke="#B7B8BB" stroke-width="1.5"/>
<path opacity="0.5" d="M6 20L5 22M18 20L19 22" stroke="#B7B8BB" stroke-width="1.5" stroke-linecap="round"/>
<path d="M2 12H22" stroke="#B7B8BB" stroke-width="1.5" stroke-linecap="round"/>
<path opacity="0.5" d="M3 13V4.38503C2.99984 3.83055 3.19287 3.29335 3.54591 2.86579C3.89895 2.43823 4.38992 2.14704 4.93441 2.04228C5.4789 1.93753 6.04287 2.02576 6.52935 2.2918C7.01583 2.55784 7.39441 2.98507 7.6 3.50003L8 4.38603" stroke="#B7B8BB" stroke-linecap="round"/>
<path d="M6.346 8.74202L5.64799 9.01702C5.68482 9.11045 5.74003 9.19553 5.81036 9.26721C5.88068 9.3389 5.96469 9.39574 6.05739 9.43435C6.15009 9.47296 6.24961 9.49256 6.35003 9.49199C6.45045 9.49142 6.54974 9.47068 6.642 9.43102L6.346 8.74202ZM12.306 6.17602L12.603 6.86402C12.7817 6.78692 12.9235 6.64335 12.9983 6.46365C13.0732 6.28395 13.0752 6.08219 13.004 5.90102L12.306 6.17602ZM7.043 8.46602C6.79171 7.8252 6.79672 7.11224 7.057 6.47502L5.66699 5.91002C5.26126 6.90462 5.2551 8.01727 5.64799 9.01702L7.043 8.46702V8.46602ZM12.01 5.48602L6.05 8.05402L6.642 9.43102L12.603 6.86402L12.01 5.48802V5.48602ZM10.282 5.06802C10.904 5.33302 11.367 5.83802 11.609 6.45002L13.004 5.90102C12.8133 5.40925 12.5265 4.95938 12.1605 4.5796C11.7944 4.19983 11.3564 3.89674 10.872 3.68802L10.282 5.06802ZM7.057 6.47502C7.29176 5.8848 7.73717 5.40269 8.307 5.12202L7.651 3.77202C6.74795 4.21472 6.04108 4.97646 5.66699 5.91002L7.057 6.47502ZM8.307 5.12202C8.61276 4.9709 8.94763 4.88782 9.28857 4.87849C9.62952 4.86917 9.96843 4.93383 10.282 5.06802L10.872 3.68802C10.3607 3.46932 9.80814 3.36369 9.2522 3.37836C8.69627 3.39303 8.15007 3.52665 7.651 3.77202L8.307 5.12202Z" fill="#B7B8BB"/>
</svg>
