<svg width="25" height="24" viewBox="0 0 25 24" fill="none" xmlns="http://www.w3.org/2000/svg">
<path d="M3.25 6.5C3.25 5.43913 3.67143 4.42172 4.42157 3.67157C5.17172 2.92143 6.18913 2.5 7.25 2.5C8.31087 2.5 9.32828 2.92143 10.0784 3.67157C10.8286 4.42172 11.25 5.43913 11.25 6.5C11.25 7.56087 10.8286 8.57828 10.0784 9.32843C9.32828 10.0786 8.31087 10.5 7.25 10.5C6.18913 10.5 5.17172 10.0786 4.42157 9.32843C3.67143 8.57828 3.25 7.56087 3.25 6.5Z" stroke="#4784C4" stroke-width="1.5"/>
<path opacity="0.5" d="M14.25 17.5C14.25 16.4391 14.6714 15.4217 15.4216 14.6716C16.1717 13.9214 17.1891 13.5 18.25 13.5C19.3109 13.5 20.3283 13.9214 21.0784 14.6716C21.8286 15.4217 22.25 16.4391 22.25 17.5C22.25 18.5609 21.8286 19.5783 21.0784 20.3284C20.3283 21.0786 19.3109 21.5 18.25 21.5C17.1891 21.5 16.1717 21.0786 15.4216 20.3284C14.6714 19.5783 14.25 18.5609 14.25 17.5Z" stroke="#4784C4" stroke-width="1.5"/>
<path d="M3.25 17.5C3.25 15.614 3.25 14.672 3.836 14.086C4.422 13.5 5.364 13.5 7.25 13.5C9.136 13.5 10.078 13.5 10.664 14.086C11.25 14.672 11.25 15.614 11.25 17.5C11.25 19.386 11.25 20.328 10.664 20.914C10.078 21.5 9.136 21.5 7.25 21.5C5.364 21.5 4.422 21.5 3.836 20.914C3.25 20.328 3.25 19.386 3.25 17.5Z" stroke="#4784C4" stroke-width="1.5"/>
<path opacity="0.5" d="M14.25 6.5C14.25 4.614 14.25 3.672 14.836 3.086C15.422 2.5 16.364 2.5 18.25 2.5C20.136 2.5 21.078 2.5 21.664 3.086C22.25 3.672 22.25 4.614 22.25 6.5C22.25 8.386 22.25 9.328 21.664 9.914C21.078 10.5 20.136 10.5 18.25 10.5C16.364 10.5 15.422 10.5 14.836 9.914C14.25 9.328 14.25 8.386 14.25 6.5Z" stroke="#4784C4" stroke-width="1.5"/>
</svg>
