<svg width="21" height="22" viewBox="0 0 21 22" fill="none" xmlns="http://www.w3.org/2000/svg">
<g id="Group">
<path id="Vector" d="M1.25 5.5C1.25 4.43913 1.67143 3.42172 2.42157 2.67157C3.17172 1.92143 4.18913 1.5 5.25 1.5C6.31087 1.5 7.32828 1.92143 8.07843 2.67157C8.82857 3.42172 9.25 4.43913 9.25 5.5C9.25 6.56087 8.82857 7.57828 8.07843 8.32843C7.32828 9.07857 6.31087 9.5 5.25 9.5C4.18913 9.5 3.17172 9.07857 2.42157 8.32843C1.67143 7.57828 1.25 6.56087 1.25 5.5Z" stroke="#4784C4" stroke-width="1.5"/>
<path id="Vector_2" opacity="0.5" d="M12.25 16.5C12.25 15.4391 12.6714 14.4217 13.4216 13.6716C14.1717 12.9214 15.1891 12.5 16.25 12.5C17.3109 12.5 18.3283 12.9214 19.0784 13.6716C19.8286 14.4217 20.25 15.4391 20.25 16.5C20.25 17.5609 19.8286 18.5783 19.0784 19.3284C18.3283 20.0786 17.3109 20.5 16.25 20.5C15.1891 20.5 14.1717 20.0786 13.4216 19.3284C12.6714 18.5783 12.25 17.5609 12.25 16.5Z" stroke="#4784C4" stroke-width="1.5"/>
<path id="Vector_3" d="M1.25 16.5C1.25 14.614 1.25 13.672 1.836 13.086C2.422 12.5 3.364 12.5 5.25 12.5C7.136 12.5 8.078 12.5 8.664 13.086C9.25 13.672 9.25 14.614 9.25 16.5C9.25 18.386 9.25 19.328 8.664 19.914C8.078 20.5 7.136 20.5 5.25 20.5C3.364 20.5 2.422 20.5 1.836 19.914C1.25 19.328 1.25 18.386 1.25 16.5Z" stroke="#4784C4" stroke-width="1.5"/>
<path id="Vector_4" opacity="0.5" d="M12.25 5.5C12.25 3.614 12.25 2.672 12.836 2.086C13.422 1.5 14.364 1.5 16.25 1.5C18.136 1.5 19.078 1.5 19.664 2.086C20.25 2.672 20.25 3.614 20.25 5.5C20.25 7.386 20.25 8.328 19.664 8.914C19.078 9.5 18.136 9.5 16.25 9.5C14.364 9.5 13.422 9.5 12.836 8.914C12.25 8.328 12.25 7.386 12.25 5.5Z" stroke="#4784C4" stroke-width="1.5"/>
</g>
</svg>
