<svg width="34" height="34" viewBox="0 0 34 34" fill="none" xmlns="http://www.w3.org/2000/svg">
<path d="M16.8109 29.2C23.7223 29.2 29.3252 23.5972 29.3252 16.6857C29.3252 9.77423 23.7223 4.17139 16.8109 4.17139C9.89942 4.17139 4.29657 9.77423 4.29657 16.6857C4.29657 23.5972 9.89942 29.2 16.8109 29.2Z" stroke="#4784C4" stroke-width="2.08572" stroke-linecap="round" stroke-linejoin="round"/>
<path d="M22.0252 11.4715H19.9395C19.5282 11.4697 19.1206 11.5495 18.7402 11.7061C18.3598 11.8627 18.0143 12.0931 17.7234 12.384C17.4325 12.6748 17.2022 13.0204 17.0455 13.4007C16.8889 13.7811 16.8092 14.1887 16.8109 14.6L16.8109 29.2001" stroke="#4784C4" stroke-width="2.08572" stroke-linecap="round" stroke-linejoin="round"/>
<path d="M12.6394 18.7715H20.9823" stroke="#4784C4" stroke-width="2.08572" stroke-linecap="round" stroke-linejoin="round"/>
</svg>
