<svg width="23" height="18" viewBox="0 0 23 18" fill="none" xmlns="http://www.w3.org/2000/svg">
<path opacity="0.4" d="M18.5 17V15.5M4.5 17V15.5" stroke="#B7B8BB" stroke-width="1.5" stroke-linecap="round"/>
<path d="M20.5 9C20.5 5.229 20.5 3.343 19.328 2.172C18.157 1 16.271 1 12.5 1H10.5C6.729 1 4.843 1 3.672 2.172C2.5 3.343 2.5 5.229 2.5 9M1.5 12C1.5 11.068 1.5 10.602 1.652 10.235C1.75251 9.99218 1.8999 9.77155 2.08572 9.58572C2.27155 9.3999 2.49218 9.25251 2.735 9.152C3.102 9 3.568 9 4.5 9H18.5C19.432 9 19.898 9 20.265 9.152C20.5078 9.25251 20.7284 9.3999 20.9143 9.58572C21.1001 9.77155 21.2475 9.99218 21.348 10.235C21.5 10.602 21.5 11.068 21.5 12C21.5 12.932 21.5 13.398 21.348 13.765C21.2475 14.0078 21.1001 14.2284 20.9143 14.4143C20.7284 14.6001 20.5078 14.7475 20.265 14.848C19.898 15 19.432 15 18.5 15H4.5C3.568 15 3.102 15 2.735 14.848C2.49218 14.7475 2.27155 14.6001 2.08572 14.4143C1.8999 14.2284 1.75251 14.0078 1.652 13.765C1.5 13.398 1.5 12.932 1.5 12Z" stroke="#B7B8BB" stroke-width="1.5"/>
<path opacity="0.4" d="M18 9V7.5C18 5.614 18 4.672 17.414 4.086C16.828 3.5 15.886 3.5 14 3.5H9C7.114 3.5 6.172 3.5 5.586 4.086C5 4.672 5 5.614 5 7.5V9M11.5 4V9" stroke="#B7B8BB"/>
</svg>
