<svg width="22" height="22" viewBox="0 0 22 22" fill="none" xmlns="http://www.w3.org/2000/svg">
<path d="M16 6H13M16 6V9M16 6L12.5 9.5M6 16H9M6 16V13M6 16L9.5 12.5M6 6H9M6 6V9M6 6L9.5 9.5M16 16H13M16 16V13M16 16L12.5 12.5" stroke="#B7B8BB" stroke-linecap="round" stroke-linejoin="round"/>
<path opacity="0.5" d="M1 11C1 6.286 1 3.929 2.464 2.464C3.93 1 6.286 1 11 1C15.714 1 18.071 1 19.535 2.464C21 3.93 21 6.286 21 11C21 15.714 21 18.071 19.535 19.535C18.072 21 15.714 21 11 21C6.286 21 3.929 21 2.464 19.535C1 18.072 1 15.714 1 11Z" stroke="#B7B8BB" stroke-width="1.5"/>
</svg>
