<svg width="428" height="926" viewBox="0 0 428 926" fill="none" xmlns="http://www.w3.org/2000/svg">
<g clip-path="url(#clip0_145_804)">
<rect width="428" height="926" fill="#2148C0"/>
<circle cx="-22" cy="873" r="335" fill="#264ECA"/>
<ellipse cx="-6.47391" cy="851" rx="262.526" ry="250" fill="#2148C0"/>
<path d="M130.613 85.8552C57.4773 93.4305 7.7311 33.7748 -8 3L458 5.07138V430H405.953C244.794 407.511 271.924 317.85 305.633 275.83C325.319 246.338 360.917 175.28 345.815 126.987C326.938 66.6209 222.034 76.386 130.613 85.8552Z" fill="#264ECA"/>
<g clip-path="url(#clip1_145_804)">
<path d="M138.457 420.37C138.415 419.47 138.28 418.575 138.053 417.698C137.282 414.707 135.434 412.038 132.803 410.114C130.216 408.167 126.982 407.072 123.625 407.007H75.897C74.6662 406.973 73.435 407.063 72.2257 407.274C69.3512 407.847 66.7229 409.171 64.6626 411.083C63.1629 412.403 62.0085 414.013 61.285 415.793C60.6712 417.107 60.323 418.51 60.257 419.936H60V465.238H60.257C60.3104 466.64 60.6464 468.022 61.2483 469.314C62.6173 472.503 65.232 475.12 68.591 476.664C69.9838 477.322 71.4836 477.774 73.0334 478C73.0836 477.974 73.1406 477.96 73.1986 477.96C73.2566 477.96 73.3136 477.974 73.3638 478H125.13H125.387H126.305C129.066 477.465 131.611 476.246 133.659 474.477C135.706 472.709 137.176 470.459 137.906 467.977C138.306 466.616 138.491 465.21 138.457 463.801V420.37ZM120.981 454.781C120.922 454.921 120.922 455.076 120.981 455.215C120.891 455.751 120.744 456.276 120.541 456.786L119.88 459.091L119.697 459.592C119.697 460.093 119.256 460.494 118.595 460.561H118.338C118.239 460.616 118.13 460.652 118.015 460.668C117.901 460.685 117.784 460.68 117.671 460.656C117.559 460.631 117.453 460.586 117.359 460.524C117.266 460.462 117.187 460.383 117.126 460.293C116.789 459.902 116.571 459.436 116.494 458.944C116.417 458.451 116.483 457.949 116.686 457.487L116.906 457.019C116.961 456.8 116.961 456.571 116.906 456.351C116.724 455.875 116.724 455.357 116.906 454.881C116.967 454.741 117.061 454.614 117.182 454.51C117.302 454.406 117.446 454.328 117.604 454.28L118.522 453.912C118.648 453.871 118.763 453.804 118.858 453.718C118.954 453.631 119.027 453.526 119.072 453.411C119.293 452.977 119.66 452.643 119.917 452.209C120.174 451.774 120.137 451.774 120.431 451.774C120.724 451.774 120.871 452.042 121.018 452.275C121.073 452.461 121.073 452.657 121.018 452.843V453.512C121.166 453.926 121.153 454.374 120.981 454.781ZM122.009 437.609C121.868 438.051 121.671 438.477 121.422 438.879C121.018 439.58 120.541 440.248 120.137 440.95C119.717 441.594 119.154 442.151 118.485 442.587C117.205 443.445 116.046 444.444 115.034 445.56C114.517 446.16 114.074 446.81 113.712 447.498C113.657 447.584 113.629 447.682 113.629 447.782C113.629 447.882 113.657 447.98 113.712 448.066C113.886 448.521 114.009 448.991 114.079 449.469C114.123 449.8 114.291 450.107 114.557 450.338C114.66 450.447 114.737 450.575 114.781 450.713C114.826 450.851 114.837 450.997 114.814 451.14C114.74 451.75 114.74 452.366 114.814 452.977C114.843 453.463 114.698 453.944 114.399 454.348C114.101 454.752 113.667 455.056 113.161 455.215C112.615 455.34 112.142 455.651 111.84 456.084C111.84 456.251 111.546 456.285 111.399 456.385C111.198 456.478 111.039 456.633 110.952 456.823C110.864 457.013 110.854 457.224 110.922 457.42C110.922 457.654 110.922 457.921 111.106 458.189C111.252 458.738 111.252 459.31 111.106 459.859C111.07 459.988 110.997 460.106 110.893 460.2C110.79 460.295 110.66 460.361 110.518 460.394C110.285 460.436 110.061 460.515 109.857 460.628C109.741 460.658 109.64 460.726 109.573 460.817C109.506 460.909 109.477 461.019 109.49 461.129C109.491 461.929 109.193 462.707 108.646 463.334C107.975 464.214 107.239 465.051 106.443 465.839C106.083 466.213 105.635 466.509 105.134 466.705C104.632 466.902 104.088 466.994 103.542 466.975C103.042 466.928 102.538 466.928 102.037 466.975L101.046 467.142C100.79 467.175 100.531 467.175 100.275 467.142C100.106 467.147 99.938 467.121 99.7803 467.066C99.6225 467.011 99.4782 466.929 99.3554 466.823C99.2327 466.718 99.1339 466.592 99.065 466.451C98.996 466.311 98.958 466.16 98.9533 466.006C98.9354 465.929 98.9354 465.85 98.9533 465.773C99.0049 465.289 98.903 464.802 98.6596 464.369C98.3025 463.592 97.8333 462.862 97.2643 462.198C97.0184 461.929 96.8539 461.607 96.7872 461.262L96.4568 459.291C96.2025 458.506 95.7918 457.77 95.2452 457.12L94.6944 456.318C94.5546 456.091 94.4671 455.841 94.4375 455.583C94.2829 454.438 94.4998 453.276 95.0616 452.242L95.5021 451.641C95.6195 451.47 95.6817 451.274 95.6817 451.073C95.6817 450.872 95.6195 450.675 95.5021 450.505C95.3605 450.115 95.2741 449.711 95.2452 449.302C95.0659 448.59 94.8076 447.896 94.4742 447.231C94.199 446.844 93.8791 446.486 93.5196 446.162L93.0424 445.761C92.8016 445.557 92.6318 445.293 92.5534 445.002C92.4751 444.711 92.492 444.406 92.6018 444.124C92.6018 443.723 92.822 443.322 92.8954 442.921C92.9135 442.71 92.9135 442.498 92.8954 442.286C92.8973 442.108 92.8275 441.934 92.6991 441.799C92.5707 441.664 92.3926 441.576 92.1979 441.551H90.8395C90.695 441.564 90.5493 441.54 90.4195 441.481C90.2895 441.422 90.1806 441.33 90.1052 441.217C90.0061 441.091 89.92 440.957 89.8482 440.816C89.7478 440.649 89.5873 440.518 89.3936 440.445C89.1999 440.372 88.9847 440.361 88.7835 440.415C88.3218 440.441 87.8655 440.52 87.4251 440.649L86.2504 440.983C85.786 441.16 85.2843 441.24 84.7818 441.217H83.8273C83.2185 441.16 82.6038 441.229 82.0283 441.418C81.8922 441.482 81.7411 441.516 81.5877 441.516C81.4342 441.516 81.2832 441.482 81.1472 441.418C80.0505 440.919 79.0165 440.315 78.0631 439.614C77.758 439.392 77.5183 439.105 77.3656 438.778C77.1967 438.479 76.9734 438.208 76.7047 437.977C76.3009 437.609 75.9338 437.242 75.5299 436.907C75.3039 436.789 75.1105 436.625 74.9642 436.428C74.818 436.231 74.7226 436.007 74.6855 435.772C74.6836 435.633 74.65 435.496 74.5868 435.369C74.5236 435.242 74.4322 435.129 74.3184 435.037C74.2871 435.011 74.2621 434.981 74.2449 434.946C74.2278 434.912 74.2189 434.874 74.2189 434.836C74.2189 434.798 74.2278 434.761 74.2449 434.726C74.2621 434.692 74.2871 434.661 74.3184 434.636L74.6855 434.302C75.037 433.666 75.249 432.974 75.3096 432.264C75.3823 431.808 75.3057 431.343 75.0893 430.927C74.98 430.749 74.9227 430.547 74.9227 430.343C74.9227 430.138 74.98 429.937 75.0893 429.758C75.5084 429.092 75.8764 428.399 76.1907 427.687C76.2289 427.462 76.3163 427.246 76.4477 427.052C76.7415 426.684 77.0718 426.35 77.4022 425.983C77.4907 425.886 77.5891 425.796 77.696 425.716L78.981 424.88C79.1962 424.771 79.3747 424.611 79.4976 424.417C79.6204 424.223 79.6831 424.002 79.6785 423.778C79.6427 423.568 79.6427 423.354 79.6785 423.143C79.8632 422.541 80.2637 422.012 80.8166 421.64L81.4408 421.172C81.6831 421 81.8832 420.784 82.0283 420.537C82.0649 420.406 82.1269 420.281 82.2118 420.17C82.2531 420.127 82.3039 420.093 82.361 420.07C82.4179 420.046 82.4797 420.034 82.5422 420.034C82.6047 420.034 82.6666 420.046 82.7235 420.07C82.7805 420.093 82.8313 420.127 82.8726 420.17C83.4637 420.395 84.1126 420.465 84.745 420.37C85.0803 420.37 85.4095 420.289 85.6996 420.136C86.935 419.506 88.3219 419.161 89.7382 419.134H90.2521C90.628 419.067 91.0143 419.067 91.3902 419.134C91.9545 419.14 92.5149 419.049 93.0424 418.867C93.1694 418.78 93.324 418.733 93.4829 418.733C93.6417 418.733 93.7963 418.78 93.9235 418.867C93.9235 418.867 94.4007 418.867 94.4742 419.134C94.5476 419.401 94.4742 419.435 94.2539 419.602C94.2146 419.71 94.2146 419.827 94.2539 419.936C94.3288 420.021 94.3828 420.12 94.4125 420.226C94.4421 420.331 94.4466 420.442 94.4258 420.549C94.405 420.657 94.3592 420.759 94.2916 420.849C94.224 420.939 94.1361 421.015 94.0337 421.072C94.0215 421.149 94.0215 421.228 94.0337 421.306C94.0337 421.306 94.0337 421.306 94.0337 421.473H94.2539C94.7075 421.683 95.1886 421.84 95.6857 421.941L96.8238 422.141C96.9692 422.16 97.1066 422.213 97.2224 422.295C97.3384 422.377 97.4288 422.485 97.4847 422.609C97.5388 422.718 97.62 422.814 97.7219 422.889C97.824 422.964 97.9438 423.017 98.072 423.043L99.4673 423.544C99.5887 423.563 99.7129 423.563 99.8344 423.544C100.055 423.544 100.165 423.544 100.275 423.277C100.311 423.089 100.311 422.897 100.275 422.709C100.282 422.551 100.342 422.399 100.447 422.274C100.552 422.148 100.697 422.055 100.862 422.007H101.486C101.674 421.966 101.871 421.969 102.057 422.016C102.243 422.062 102.413 422.151 102.551 422.275C102.767 422.451 103.035 422.567 103.322 422.609L105.966 423.21C106.378 423.361 106.838 423.361 107.251 423.21C107.679 423.078 108.144 423.078 108.572 423.21H109.931C110.298 423.21 110.555 423.21 110.591 423.678C110.628 424.145 110.591 424.079 110.591 424.246C110.773 424.733 110.773 425.262 110.591 425.749C110.525 425.843 110.438 425.923 110.334 425.983C110.151 425.983 110.151 426.183 110.334 426.35C110.518 426.517 110.628 427.052 110.812 427.386C111.137 427.815 111.385 428.289 111.546 428.789C111.625 428.979 111.751 429.151 111.913 429.29C112.43 429.76 112.72 430.397 112.721 431.061C112.716 431.247 112.752 431.431 112.828 431.603C112.904 431.776 113.017 431.932 113.161 432.063C113.578 432.412 113.872 432.865 114.006 433.366C114.154 433.76 114.437 434.099 114.814 434.335C115.401 434.769 115.915 435.27 116.466 435.738C116.689 435.938 116.843 436.194 116.906 436.473C116.906 437.008 117.31 437.208 117.934 437.108C118.436 437.121 118.939 437.11 119.44 437.074C120.083 437.013 120.714 436.867 121.312 436.64H121.532C121.578 436.625 121.627 436.619 121.675 436.623C121.724 436.627 121.771 436.64 121.813 436.663C121.855 436.685 121.891 436.715 121.919 436.752C121.947 436.789 121.965 436.83 121.973 436.874C122.057 437.112 122.069 437.365 122.009 437.609Z" fill="white"/>
<path d="M367 411.985C366.734 411.389 366.297 410.867 365.736 410.474C365.174 410.08 364.508 409.83 363.806 409.747C363.767 409.765 363.723 409.774 363.678 409.774C363.633 409.774 363.589 409.765 363.55 409.747H363.109C363.068 409.765 363.025 409.774 362.98 409.774C362.936 409.774 362.892 409.765 362.852 409.747C362.18 409.829 361.547 410.079 361.024 410.468C360.499 410.857 360.101 411.371 359.878 411.952L357.859 416.562L354.959 422.977C353.894 425.349 352.828 427.721 351.801 430.093L348.13 437.877L344.458 445.761C344.458 445.761 344.458 445.962 344.201 445.962C344.044 445.693 343.91 445.414 343.798 445.127C342.328 441.786 340.897 438.445 339.465 435.338C338.033 432.231 336.858 428.857 335.353 425.65C335.133 425.112 334.876 424.587 334.583 424.079C334.346 423.628 333.992 423.236 333.55 422.939C333.109 422.641 332.593 422.448 332.049 422.375C331.069 422.259 330.076 422.473 329.258 422.977C328.92 423.146 328.63 423.387 328.415 423.678C328.022 424.157 327.777 424.722 327.706 425.315C327.636 425.909 327.74 426.509 328.01 427.053C328.377 427.955 328.781 428.857 329.185 429.759L333.37 439.147C334.435 441.585 335.537 444.024 336.638 446.496C338.033 449.67 339.428 452.811 340.86 455.984C341.055 456.485 341.328 456.957 341.667 457.388C342.213 458.024 342.993 458.459 343.865 458.612C344.734 458.766 345.636 458.628 346.403 458.223C347.218 457.771 347.849 457.091 348.203 456.285C349.744 452.777 351.287 449.303 352.866 445.795C354.444 442.287 355.986 438.679 357.564 435.138L360.87 427.788C361.677 425.883 362.521 424.013 363.366 422.142L366.45 415.126L367 413.856V412.019V411.985Z" fill="white"/>
<path d="M223.971 450.844C223.053 449.04 222.173 447.27 221.255 445.499C219.969 442.993 218.685 440.488 217.583 437.982C216.482 435.476 215.16 433.271 213.912 430.899L210.24 423.416C209.176 421.278 208.074 419.14 206.973 417.002L205.651 414.429C205.247 413.627 204.88 412.792 204.44 412.024C204.2 411.476 203.805 410.996 203.296 410.633C202.787 410.269 202.181 410.034 201.539 409.952H201.282H200.401C200.356 409.973 200.305 409.984 200.254 409.984C200.203 409.984 200.153 409.973 200.107 409.952C199.878 409.992 199.663 410.084 199.483 410.22H199.226C198.521 410.576 197.955 411.125 197.611 411.79L195.885 415.131L191.113 424.151C189.644 427.024 188.212 429.897 186.744 432.737C185.275 435.577 183.953 438.182 182.595 440.922C182.288 441.463 182.019 442.021 181.787 442.592C181.536 443.164 181.486 443.792 181.644 444.39C181.802 444.989 182.16 445.528 182.668 445.933C183.06 446.279 183.527 446.547 184.039 446.72C184.551 446.892 185.097 446.966 185.642 446.936C186.477 446.922 187.276 446.624 187.882 446.1C188.31 445.702 188.658 445.239 188.91 444.731L191.113 440.287L195.482 431.701L199.153 424.084L199.667 423.216C200.071 422.748 200.181 422.146 200.548 421.645C200.61 421.661 200.665 421.69 200.711 421.731C200.756 421.772 200.788 421.823 200.805 421.879L201.392 423.015L205.541 431.133L208.184 436.345L212.81 445.399C213.875 447.57 214.977 449.675 216.078 451.847L217.18 454.052C217.657 454.987 218.098 455.922 218.612 456.825C218.91 457.472 219.425 458.018 220.085 458.384C220.744 458.75 221.514 458.917 222.282 458.862C223.035 458.823 223.755 458.574 224.345 458.15C224.936 457.726 225.369 457.146 225.587 456.49C225.858 455.586 225.754 454.623 225.293 453.784C224.962 452.782 224.485 451.813 223.971 450.844Z" fill="white"/>
<path d="M315.38 441.852C314.908 440.043 313.89 438.389 312.444 437.075C311.261 435.995 309.898 435.093 308.405 434.402C307.13 433.815 305.804 433.324 304.44 432.932C302.64 432.331 300.769 431.897 298.933 431.462C296.669 430.982 294.437 430.38 292.251 429.658C291.206 429.294 290.198 428.847 289.24 428.322C288.362 427.853 287.639 427.177 287.148 426.366C286.658 425.554 286.416 424.637 286.45 423.711C286.475 423.124 286.575 422.541 286.743 421.974C287.117 420.592 288.065 419.395 289.388 418.633C290.521 417.991 291.761 417.517 293.059 417.23C294.627 416.851 296.246 416.671 297.869 416.696C298.843 416.696 299.776 416.344 300.465 415.717C301.152 415.091 301.54 414.241 301.54 413.355C301.548 412.544 301.233 411.758 300.652 411.144C300.07 410.529 299.265 410.127 298.383 410.014H297.501C295.303 409.835 293.091 409.947 290.929 410.348C287.78 411.054 284.914 412.56 282.668 414.691C280.475 416.784 279.174 419.521 278.997 422.409C278.88 423.76 278.967 425.12 279.254 426.451C279.534 427.857 280.12 429.197 280.98 430.393C282.118 431.937 283.623 433.227 285.386 434.168C287.049 435.084 288.824 435.824 290.672 436.373C293.206 437.142 295.849 437.71 298.419 438.378C300.116 438.755 301.785 439.235 303.412 439.814C304.512 440.211 305.55 440.739 306.496 441.385C307.276 441.96 307.841 442.743 308.112 443.623C308.441 444.912 308.294 446.264 307.697 447.471C307.1 448.678 306.086 449.674 304.806 450.305C302.801 451.306 300.56 451.855 298.272 451.908C297.332 451.991 296.385 451.991 295.445 451.908C294.319 451.786 293.203 451.596 292.104 451.34C290.419 450.931 288.828 450.253 287.404 449.336C286.731 448.889 286.104 448.385 285.532 447.832C285.129 447.412 284.565 447.149 283.954 447.097C283.09 446.94 282.196 447.021 281.384 447.331C280.904 447.502 280.475 447.772 280.131 448.12C279.787 448.468 279.537 448.884 279.402 449.336C279.212 449.919 279.199 450.538 279.367 451.127C279.536 451.716 279.877 452.252 280.355 452.677C281.775 454.022 283.424 455.15 285.238 456.018C287.328 457.015 289.567 457.724 291.884 458.122C293.524 458.445 295.199 458.601 296.877 458.59H297.17C298.744 458.6 300.317 458.488 301.87 458.256C304.373 457.818 306.772 456.981 308.956 455.784C310.903 454.689 312.525 453.174 313.678 451.374C314.83 449.573 315.478 447.543 315.564 445.46V444.158C315.587 443.385 315.526 442.613 315.38 441.852Z" fill="white"/>
<path d="M262.953 438.478C264.727 437.471 266.252 436.14 267.432 434.569C268.732 432.725 269.548 430.633 269.818 428.456C269.947 427.245 269.947 426.025 269.818 424.814C269.785 423.691 269.637 422.572 269.378 421.473C268.939 419.754 268.154 418.123 267.064 416.662C265.919 415.151 264.46 413.857 262.769 412.854C259.554 410.752 255.713 409.587 251.755 409.513C251.167 409.513 250.544 409.513 249.956 409.513C248.502 409.639 247.066 409.885 245.661 410.248C242.097 411.122 238.926 412.992 236.592 415.593C235.697 416.619 234.945 417.741 234.352 418.934C233.4 421.051 232.962 423.331 233.068 425.616C233.076 426.146 233.223 426.666 233.495 427.134C233.768 427.601 234.158 428.004 234.634 428.307C235.111 428.611 235.661 428.807 236.238 428.879C236.815 428.951 237.402 428.898 237.951 428.723C238.541 428.558 239.076 428.26 239.506 427.857C239.936 427.454 240.246 426.959 240.411 426.418C240.464 425.94 240.464 425.459 240.411 424.981C240.425 423.603 240.776 422.245 241.438 421.006C242.082 419.892 243.031 418.949 244.192 418.266C245.005 417.783 245.866 417.369 246.762 417.03C248.125 416.56 249.564 416.3 251.021 416.262C252.021 416.262 253.019 416.363 253.994 416.562C255.644 416.905 257.211 417.516 258.621 418.366C259.766 419.093 260.68 420.085 261.264 421.239C261.881 422.468 262.218 423.798 262.255 425.148C262.392 426.47 262.282 427.803 261.925 429.09C261.54 430.45 260.627 431.637 259.355 432.431C257.566 433.494 255.61 434.305 253.555 434.837C251.828 435.338 249.883 435.772 248.378 436.307C246.216 436.923 244.136 437.752 242.172 438.779C239.696 440.087 237.6 441.917 236.06 444.114C234.522 446.311 233.584 448.812 233.325 451.407C233.325 452.009 233.325 452.61 233.141 453.245C233.068 453.989 233.068 454.739 233.141 455.483C233.141 456.369 233.528 457.219 234.217 457.846C234.906 458.472 235.839 458.824 236.813 458.824C237.519 458.823 238.209 458.636 238.803 458.286C239.395 457.937 239.864 457.439 240.154 456.853C240.29 456.541 240.388 456.216 240.447 455.884C240.485 455.25 240.485 454.614 240.447 453.98C240.471 452.724 240.679 451.476 241.072 450.271C241.518 448.818 242.35 447.487 243.495 446.396C244.421 445.545 245.503 444.844 246.688 444.325C248.474 443.541 250.329 442.893 252.233 442.387C253.994 441.853 255.903 441.418 257.557 440.85C259.441 440.234 261.25 439.439 262.953 438.478Z" fill="white"/>
<path d="M311.489 421.339C312.463 421.339 313.396 420.987 314.085 420.36C314.774 419.734 315.16 418.884 315.16 417.998C315.16 417.112 314.774 416.262 314.085 415.636C313.396 415.009 312.463 414.657 311.489 414.657C310.516 414.657 309.581 415.009 308.893 415.636C308.205 416.262 307.817 417.112 307.817 417.998C307.817 418.884 308.205 419.734 308.893 420.36C309.581 420.987 310.516 421.339 311.489 421.339Z" fill="white"/>
<path d="M325.77 416.529C326.744 416.529 327.677 416.177 328.366 415.55C329.055 414.924 329.442 414.074 329.442 413.188C329.442 412.527 329.226 411.881 328.823 411.332C328.419 410.783 327.846 410.354 327.176 410.102C326.504 409.849 325.767 409.783 325.055 409.911C324.343 410.04 323.688 410.359 323.175 410.826C322.661 411.293 322.312 411.888 322.17 412.536C322.028 413.184 322.102 413.856 322.379 414.467C322.656 415.077 323.127 415.599 323.732 415.966C324.335 416.333 325.044 416.529 325.77 416.529Z" fill="white"/>
<path d="M266.293 451.841C265.32 451.841 264.385 452.193 263.698 452.819C263.009 453.446 262.621 454.295 262.621 455.181C262.621 456.068 263.009 456.917 263.698 457.544C264.385 458.17 265.32 458.522 266.293 458.522C267.267 458.522 268.2 458.17 268.889 457.544C269.578 456.917 269.964 456.068 269.964 455.181C269.964 454.295 269.578 453.446 268.889 452.819C268.2 452.193 267.267 451.841 266.293 451.841Z" fill="white"/>
<path d="M179.098 458.591C180.072 458.591 181.006 458.239 181.694 457.612C182.383 456.986 182.769 456.136 182.769 455.25C182.769 454.364 182.383 453.514 181.694 452.888C181.006 452.261 180.072 451.909 179.098 451.909C178.124 451.909 177.191 452.261 176.502 452.888C175.814 453.514 175.427 454.364 175.427 455.25C175.427 456.136 175.814 456.986 176.502 457.612C177.191 458.239 178.124 458.591 179.098 458.591Z" fill="white"/>
<path d="M244.964 466.175H244.01C242.821 466.388 241.755 466.979 241.002 467.842C240.25 468.705 239.857 469.784 239.897 470.885C239.876 471.502 239.991 472.115 240.236 472.69C240.482 473.264 240.854 473.787 241.33 474.226C241.789 474.692 242.358 475.06 242.992 475.302C243.627 475.545 244.314 475.657 245.001 475.629C245.702 475.653 246.4 475.526 247.038 475.259C247.675 474.992 248.236 474.593 248.673 474.093C249.402 473.344 249.854 472.406 249.966 471.411C250.078 470.416 249.843 469.414 249.296 468.547C248.894 467.819 248.274 467.21 247.507 466.791C246.74 466.371 245.86 466.157 244.964 466.175ZM245.772 474.46H245.515H244.708C243.999 474.447 243.31 474.247 242.724 473.885C242.138 473.524 241.679 473.016 241.403 472.422C241.086 471.852 240.937 471.217 240.97 470.579C241.001 469.941 241.214 469.322 241.587 468.781C241.908 468.232 242.391 467.775 242.98 467.463C243.57 467.15 244.245 466.993 244.928 467.01C245.461 467.027 245.983 467.149 246.458 467.369C246.933 467.588 247.351 467.899 247.681 468.279C248.124 468.757 248.431 469.326 248.576 469.937C248.719 470.548 248.696 471.182 248.507 471.783C248.319 472.383 247.971 472.933 247.493 473.382C247.016 473.832 246.425 474.167 245.772 474.36V474.46Z" fill="white"/>
<path d="M295.739 466.173C295.386 466.121 295.026 466.121 294.674 466.173C293.671 466.39 292.771 466.894 292.104 467.609C291.657 468.061 291.313 468.588 291.093 469.162C290.872 469.736 290.778 470.343 290.819 470.95C290.883 471.99 291.307 472.984 292.031 473.79C292.622 474.452 293.413 474.942 294.308 475.197C295.202 475.453 296.159 475.463 297.06 475.226C298.142 474.934 299.077 474.308 299.705 473.456C300.347 472.615 300.669 471.606 300.621 470.582C300.593 469.606 300.234 468.661 299.594 467.876C299.144 467.337 298.559 466.901 297.891 466.605C297.221 466.309 296.483 466.161 295.739 466.173ZM298.346 473.522C297.916 473.932 297.38 474.235 296.786 474.404C296.194 474.573 295.562 474.602 294.953 474.489C294.344 474.375 293.777 474.123 293.304 473.755C292.831 473.387 292.469 472.917 292.251 472.387C291.813 471.497 291.768 470.488 292.123 469.568C292.477 468.648 293.206 467.887 294.16 467.442C294.743 467.172 295.399 467.06 296.05 467.119C296.7 467.178 297.319 467.406 297.831 467.776C298.315 468.102 298.715 468.518 299.005 468.996C299.295 469.475 299.469 470.005 299.515 470.55C299.56 471.095 299.476 471.643 299.267 472.156C299.059 472.669 298.732 473.135 298.308 473.522H298.346Z" fill="white"/>
<path d="M198.3 472.22C197.896 471.585 197.97 471.552 198.557 471.318C199.109 471.034 199.542 470.592 199.788 470.059C200.034 469.527 200.079 468.936 199.915 468.378C199.775 467.815 199.431 467.311 198.938 466.948C198.446 466.584 197.833 466.382 197.199 466.374C196.611 466.374 195.987 466.374 195.4 466.374H194.225C193.821 466.374 193.784 466.374 193.784 466.808V474.826C193.784 475.394 193.784 475.394 194.445 475.394C195.106 475.394 194.886 475.394 194.886 475.027V472.755C194.886 471.485 194.702 471.686 196.134 471.686C196.269 471.668 196.407 471.691 196.526 471.751C196.646 471.812 196.74 471.906 196.795 472.02L197.492 473.089L198.741 475.093C198.741 475.093 198.741 475.361 199.108 475.394C199.412 475.429 199.721 475.429 200.026 475.394C200.071 475.287 200.071 475.168 200.026 475.06L198.3 472.22ZM197.382 470.683H195.289C194.996 470.683 194.922 470.683 194.922 470.349V468.946V467.51C194.922 467.309 194.922 467.209 195.253 467.209H197.346C197.691 467.222 198.025 467.326 198.306 467.51C198.587 467.695 198.802 467.95 198.924 468.245C199.117 468.659 199.129 469.124 198.958 469.545C198.788 469.967 198.448 470.315 198.006 470.516C197.811 470.607 197.6 470.663 197.382 470.683Z" fill="white"/>
<path d="M261.926 471.185C261.242 470.797 260.482 470.536 259.687 470.416C259.208 470.416 258.731 470.249 258.29 470.115C258.022 470.056 257.764 469.966 257.521 469.848C257.355 469.755 257.215 469.631 257.108 469.484C257 469.338 256.927 469.172 256.896 468.998C256.865 468.824 256.875 468.646 256.925 468.475C256.977 468.305 257.066 468.147 257.19 468.011C257.454 467.716 257.795 467.486 258.181 467.343C258.774 467.225 259.388 467.225 259.98 467.343C260.343 467.357 260.697 467.442 261.019 467.592C261.343 467.742 261.627 467.953 261.853 468.211C262.146 468.545 262.146 468.545 262.55 468.412C262.595 468.408 262.637 468.393 262.674 468.369C262.71 468.345 262.74 468.313 262.757 468.276C262.775 468.239 262.783 468.198 262.78 468.157C262.775 468.117 262.76 468.077 262.733 468.044C262.512 467.622 262.154 467.272 261.705 467.042C260.943 466.617 260.067 466.386 259.173 466.374C258.607 466.383 258.047 466.485 257.521 466.674C257.039 466.847 256.612 467.122 256.272 467.476C256.05 467.728 255.891 468.022 255.805 468.335C255.719 468.649 255.71 468.975 255.775 469.293C255.842 469.61 255.983 469.911 256.19 470.174C256.395 470.437 256.662 470.657 256.969 470.817L257.483 471.018C258.01 471.186 258.551 471.32 259.099 471.418C259.601 471.494 260.094 471.617 260.567 471.786C260.818 471.864 261.053 471.976 261.265 472.12C261.498 472.285 261.661 472.517 261.728 472.779C261.795 473.041 261.761 473.315 261.632 473.557C261.41 473.978 261.014 474.302 260.531 474.459C259.861 474.707 259.123 474.753 258.421 474.591C257.722 474.429 257.097 474.066 256.639 473.557C256.598 473.524 256.547 473.506 256.492 473.506C256.438 473.506 256.386 473.524 256.346 473.557L255.869 473.724C255.869 473.724 255.647 473.891 255.869 474.024C256.028 474.348 256.266 474.634 256.565 474.86C257.176 475.304 257.906 475.594 258.68 475.699C259.453 475.805 260.243 475.722 260.971 475.461C261.432 475.3 261.854 475.062 262.219 474.759C262.523 474.539 262.761 474.254 262.917 473.931C263.072 473.607 263.137 473.254 263.109 472.902C263.079 472.549 262.958 472.209 262.751 471.91C262.545 471.611 262.261 471.362 261.926 471.185Z" fill="white"/>
<path d="M222.678 469.215L221.538 466.676C221.506 466.567 221.434 466.472 221.334 466.405C221.234 466.338 221.111 466.304 220.988 466.308C220.033 466.308 220.144 466.308 219.777 467.077V467.344C218.895 469.616 217.977 471.887 217.06 474.026C216.946 474.288 216.848 474.555 216.767 474.827C216.767 475.095 216.767 475.161 216.986 475.195H217.427C217.518 475.198 217.607 475.173 217.68 475.125C217.753 475.076 217.806 475.007 217.831 474.928L218.381 473.625C218.4 473.524 218.459 473.434 218.548 473.372C218.637 473.31 218.747 473.281 218.86 473.291C220.144 473.291 221.465 473.291 222.787 473.291C222.918 473.281 223.048 473.317 223.15 473.392C223.253 473.466 223.32 473.573 223.338 473.691L223.669 474.56L223.888 474.994C223.906 475.044 223.938 475.088 223.985 475.118C224.032 475.148 224.088 475.164 224.146 475.161C224.421 475.23 224.713 475.23 224.99 475.161C225.042 475.009 225.042 474.846 224.99 474.694C224.183 472.956 223.447 471.086 222.678 469.215ZM219.006 472.556C219.006 472.556 219.006 472.556 219.006 472.322C219.629 470.818 220.217 469.348 220.842 467.778C221.127 468.308 221.372 468.855 221.576 469.415C221.76 469.916 221.979 470.451 222.199 470.952C222.434 471.486 222.631 472.032 222.787 472.589C221.524 472.618 220.26 472.562 219.006 472.422V472.556Z" fill="white"/>
<path d="M184.092 474.525L181.155 466.84C181.169 466.741 181.169 466.64 181.155 466.54C181.136 466.488 181.102 466.443 181.057 466.407C181.011 466.372 180.956 466.349 180.898 466.339C180.567 466.339 180.2 466.339 179.906 466.339C179.613 466.339 179.649 466.74 179.539 466.974C178.548 469.446 177.593 471.885 176.602 474.324C176.602 474.591 176.419 474.859 176.309 475.159C176.575 475.206 176.849 475.206 177.116 475.159C177.19 475.151 177.259 475.126 177.317 475.084C177.376 475.043 177.42 474.988 177.447 474.925V474.625L177.777 473.823C177.997 473.255 177.997 473.255 178.585 473.255H182.256C182.345 473.257 182.432 473.284 182.504 473.332C182.576 473.379 182.63 473.446 182.66 473.522C182.66 473.689 182.66 473.89 182.844 474.057C183.027 474.224 183.101 474.658 183.211 474.925C183.237 474.988 183.282 475.043 183.34 475.084C183.398 475.126 183.468 475.151 183.541 475.159C184.239 475.159 184.459 475.159 184.129 474.491C184.129 474.625 184.092 474.558 184.092 474.525ZM181.889 472.487H178.548C178.254 472.487 178.218 472.487 178.291 472.186C178.373 471.936 178.471 471.69 178.585 471.451C179.062 470.181 179.576 468.945 180.127 467.575C180.373 467.926 180.559 468.309 180.677 468.711L181.962 472.052V472.386C181.953 472.427 181.926 472.463 181.889 472.487Z" fill="white"/>
<path d="M332.783 474.56C331.901 472.355 331.02 470.184 330.176 467.878L329.625 466.509C329.616 466.464 329.597 466.422 329.571 466.385C329.543 466.347 329.509 466.315 329.466 466.29C329.426 466.265 329.379 466.248 329.331 466.239C329.283 466.231 329.233 466.232 329.184 466.241H328.89C328.89 466.241 328.89 466.241 328.67 466.241C328.605 466.227 328.536 466.225 328.471 466.236C328.404 466.247 328.341 466.271 328.287 466.305C328.231 466.34 328.184 466.385 328.148 466.437C328.114 466.49 328.092 466.548 328.083 466.609C328.083 466.609 328.083 466.609 328.083 466.809L324.963 474.627C324.706 475.228 324.742 475.262 325.402 475.262C326.063 475.262 325.881 475.262 325.954 474.928C326.027 474.594 326.284 474.159 326.431 473.758C326.449 473.64 326.516 473.533 326.619 473.458C326.721 473.384 326.852 473.348 326.981 473.357C328.254 473.357 329.477 473.357 330.652 473.357C330.788 473.344 330.924 473.373 331.037 473.44C331.151 473.507 331.235 473.608 331.277 473.725C331.277 474.159 331.608 474.56 331.754 474.961C331.779 475.049 331.837 475.127 331.916 475.182C331.997 475.236 332.095 475.265 332.195 475.262H332.488C332.856 475.262 332.929 475.262 332.819 474.861C332.709 474.46 332.819 474.694 332.783 474.56ZM330.69 472.522H327.018C327.018 472.522 327.018 472.355 327.018 472.288L328.781 467.878C329.477 469.329 330.09 470.812 330.617 472.322C330.662 472.381 330.687 472.45 330.69 472.522Z" fill="white"/>
<path d="M351.946 467.308H356.389C356.464 467.08 356.464 466.836 356.389 466.607H355.948C354.382 466.607 352.803 466.607 351.212 466.607C351.116 466.59 351.016 466.59 350.919 466.607C350.698 466.607 350.625 466.607 350.589 466.874V475.226C350.589 475.527 350.589 475.56 351.028 475.594H356.353C356.411 475.594 356.467 475.573 356.508 475.535C356.55 475.497 356.573 475.446 356.573 475.393V474.926C356.579 474.898 356.579 474.869 356.57 474.842C356.562 474.815 356.547 474.79 356.523 474.77C356.501 474.75 356.475 474.735 356.445 474.727C356.414 474.719 356.383 474.719 356.353 474.725H351.984C351.653 474.725 351.616 474.725 351.616 474.358V471.785C351.616 471.418 351.616 471.384 352.094 471.351H355.214C355.728 471.351 355.802 471.351 355.802 470.816C355.802 470.282 355.802 470.382 355.325 470.382H354.811C353.93 470.382 353.012 470.382 352.13 470.382C351.25 470.382 351.616 470.382 351.616 469.948V467.977C351.519 467.937 351.443 467.863 351.405 467.772C351.368 467.682 351.371 467.581 351.415 467.492C351.458 467.404 351.539 467.334 351.639 467.3C351.739 467.266 351.85 467.269 351.946 467.308Z" fill="white"/>
<path d="M209.682 467.376C210.305 467.125 210.997 467.055 211.665 467.176C212.433 467.319 213.136 467.668 213.684 468.178C214.015 468.479 214.088 468.479 214.492 468.178C214.749 468.178 214.786 467.911 214.492 467.744C213.956 467.129 213.244 466.66 212.434 466.389C211.625 466.118 210.749 466.055 209.903 466.207C209.291 466.301 208.708 466.511 208.189 466.821C207.671 467.132 207.229 467.537 206.892 468.011C206.439 468.576 206.132 469.227 205.992 469.915C205.852 470.603 205.884 471.311 206.084 471.987C206.254 472.679 206.602 473.325 207.1 473.871C207.598 474.417 208.232 474.847 208.948 475.127C209.623 475.417 210.37 475.544 211.114 475.495C212.29 475.417 213.391 474.94 214.198 474.158C214.749 473.624 214.749 473.59 214.198 473.256C214.135 473.213 214.057 473.189 213.978 473.189C213.898 473.189 213.821 473.213 213.758 473.256C213.651 473.337 213.552 473.426 213.464 473.523C212.828 474.061 212.003 474.376 211.136 474.413C210.269 474.449 209.416 474.205 208.728 473.724C208.21 473.398 207.792 472.957 207.516 472.442C207.24 471.927 207.113 471.356 207.149 470.784C207.145 470.05 207.384 469.331 207.836 468.723C208.288 468.115 208.932 467.646 209.682 467.376Z" fill="white"/>
<path d="M287.99 473.322L287.733 473.556C287.386 473.88 286.968 474.135 286.507 474.308C286.046 474.48 285.552 474.565 285.053 474.558C284.493 474.544 283.943 474.413 283.448 474.176C282.951 473.938 282.521 473.601 282.19 473.188C281.668 472.533 281.386 471.743 281.386 470.933C281.386 470.123 281.668 469.334 282.19 468.678C282.676 467.98 283.429 467.471 284.303 467.249C285.179 467.027 286.113 467.107 286.926 467.476C287.35 467.671 287.735 467.931 288.064 468.244C288.285 468.478 288.358 468.444 288.651 468.244H288.982C288.982 468.244 289.165 468.043 288.982 467.91C288.547 467.399 287.99 466.983 287.356 466.694C286.72 466.405 286.021 466.249 285.31 466.239C284.613 466.217 283.918 466.341 283.283 466.602C282.645 466.862 282.084 467.253 281.638 467.743C281.174 468.233 280.822 468.802 280.604 469.418C280.386 470.033 280.305 470.683 280.365 471.327C280.428 471.972 280.63 472.599 280.962 473.171C281.294 473.743 281.749 474.249 282.301 474.658C283.178 475.31 284.289 475.643 285.421 475.594C286.424 475.558 287.39 475.23 288.174 474.658C288.542 474.402 288.854 474.085 289.092 473.723C288.885 473.564 288.65 473.439 288.394 473.355C288.374 473.325 288.346 473.3 288.311 473.282C288.279 473.263 288.24 473.252 288.202 473.249C288.163 473.246 288.123 473.251 288.087 473.263C288.05 473.276 288.017 473.296 287.99 473.322Z" fill="white"/>
<path d="M323.75 466.808H323.457C323.387 466.809 323.319 466.828 323.259 466.864C323.202 466.899 323.155 466.95 323.127 467.008C323.107 467.13 323.107 467.254 323.127 467.376C322.466 468.979 321.841 470.55 321.218 472.153C320.923 472.888 320.593 473.623 320.3 474.425C320.11 474.265 319.982 474.055 319.932 473.824C319.236 472.086 318.538 470.483 317.877 468.645C317.657 468.144 317.473 467.61 317.252 467.108C317.244 467.042 317.216 466.979 317.171 466.925C317.126 466.872 317.065 466.832 316.996 466.808H316.261V467.008" stroke="white" stroke-width="0.3"/>
<path d="M192.17 466.573C192.161 466.508 192.126 466.449 192.072 466.406C192.018 466.362 191.948 466.339 191.876 466.339H186.663C186.406 466.339 186.369 466.339 186.333 466.673V474.591C186.314 474.769 186.314 474.948 186.333 475.126C186.309 475.155 186.296 475.19 186.296 475.226C186.296 475.262 186.309 475.297 186.333 475.326C186.559 475.393 186.803 475.393 187.03 475.326C187.082 475.318 187.129 475.294 187.163 475.257C187.196 475.22 187.214 475.174 187.214 475.126V471.785C187.196 471.618 187.196 471.451 187.214 471.284C187.214 471.083 187.214 471.017 187.544 470.983H190.665C191.252 470.983 191.326 470.983 191.289 470.382C191.252 469.78 191.289 470.014 190.848 470.014C190.408 470.014 189.306 470.014 188.535 470.014H187.581C187.287 470.014 187.214 470.014 187.214 469.647C187.214 469.279 187.214 468.611 187.214 468.077C187.195 467.921 187.195 467.764 187.214 467.609C187.214 467.408 187.214 467.342 187.507 467.308H191.179C191.95 467.308 191.876 467.308 191.876 466.64L192.17 466.573Z" fill="white"/>
<path d="M365.203 466.34C365.105 466.325 365.007 466.34 364.92 466.382C364.834 466.425 364.765 466.492 364.725 466.574C364.619 466.671 364.533 466.784 364.468 466.908L362.559 469.781C362.559 469.781 362.559 470.048 362.192 470.082L360.944 468.211L359.916 466.707C359.916 466.707 359.732 466.474 359.585 466.474C359.439 466.474 358.962 466.474 358.667 466.474C358.374 466.474 358.887 466.908 358.998 467.142V467.309L361.532 471.017C361.602 471.213 361.602 471.423 361.532 471.619V474.959C361.532 475.193 361.532 475.26 361.898 475.293C362.266 475.327 362.632 475.293 362.632 474.625V471.719C362.626 471.392 362.714 471.069 362.889 470.783L365.643 467.142C365.643 466.941 366.046 466.741 365.937 466.574C365.827 466.407 365.46 466.373 365.203 466.34Z" fill="white"/>
<path d="M238.061 466.308C235.931 466.308 233.802 466.308 231.673 466.308C231.011 466.308 230.829 466.542 231.011 467.143C231.195 467.744 231.011 467.143 231.195 467.31H234.022C234.206 467.31 234.316 467.31 234.316 467.577V474.56C234.296 474.738 234.296 474.917 234.316 475.094V475.261C234.444 475.311 234.581 475.337 234.72 475.337C234.859 475.337 234.996 475.311 235.124 475.261V467.911C235.124 467.511 235.124 467.444 235.638 467.444H238.097C238.427 467.444 238.501 467.444 238.501 467.11C238.501 466.776 238.722 466.308 238.061 466.308Z" fill="white"/>
<path d="M348.056 474.392H344.715C343.835 474.392 343.871 474.392 343.871 473.623V466.942C343.871 466.307 343.871 466.307 343.137 466.34C342.403 466.374 342.842 466.34 342.806 466.608V475.093C342.806 475.093 342.806 475.294 343.099 475.327H347.837C348.349 475.327 348.387 475.327 348.387 474.793C348.387 474.459 348.313 474.425 348.056 474.392Z" fill="white"/>
<path d="M340.418 474.425H337.004C336.124 474.425 336.159 474.425 336.159 473.69V466.708C336.159 466.708 336.159 466.407 336.159 466.374C336.025 466.323 335.882 466.297 335.737 466.297C335.592 466.297 335.449 466.323 335.315 466.374V474.927C335.309 474.959 335.312 474.992 335.321 475.023C335.332 475.054 335.351 475.082 335.376 475.105C335.402 475.128 335.433 475.145 335.467 475.155C335.5 475.165 335.538 475.167 335.572 475.16H340.676C340.739 475.053 340.774 474.932 340.774 474.81C340.774 474.687 340.739 474.567 340.676 474.459C340.676 474.459 340.456 474.425 340.418 474.425Z" fill="white"/>
<path d="M274.336 474.425H270.921C270.039 474.425 270.077 474.425 270.077 473.69V466.708C270.077 466.708 270.077 466.407 270.077 466.374C269.943 466.323 269.799 466.297 269.654 466.297C269.51 466.297 269.366 466.323 269.232 466.374V474.927C269.226 474.959 269.227 474.992 269.238 475.023C269.249 475.054 269.268 475.082 269.293 475.105C269.318 475.128 269.349 475.145 269.383 475.155C269.418 475.165 269.453 475.167 269.489 475.16H274.593C274.657 475.053 274.691 474.932 274.691 474.81C274.691 474.687 274.657 474.567 274.593 474.459C274.593 474.459 274.372 474.425 274.336 474.425Z" fill="white"/>
<path d="M265.889 466.308C265.596 466.308 265.559 466.308 265.523 466.609V474.56C265.504 474.726 265.504 474.894 265.523 475.061V475.228C265.651 475.278 265.788 475.303 265.926 475.303C266.065 475.303 266.202 475.278 266.33 475.228C266.33 475.228 266.33 475.228 266.33 475.061C266.347 474.961 266.347 474.86 266.33 474.76V466.842C266.477 466.341 266.441 466.308 265.889 466.308Z" fill="white"/>
<path d="M278.006 466.64C278.006 466.406 278.006 466.339 277.638 466.339C277.272 466.339 276.977 466.339 276.977 466.907V474.725C276.957 474.847 276.957 474.971 276.977 475.092V475.26C277.105 475.309 277.242 475.335 277.381 475.335C277.521 475.335 277.658 475.309 277.786 475.26C277.786 475.26 277.786 475.26 277.786 475.092C277.803 474.926 277.803 474.758 277.786 474.591V466.64H278.006Z" fill="white"/>
<path d="M203.183 466.308C202.963 466.308 202.89 466.308 202.89 466.575V474.76C202.89 475.261 202.89 475.295 203.44 475.295C203.528 475.295 203.612 475.263 203.674 475.207C203.736 475.15 203.771 475.074 203.771 474.994V466.842C203.918 466.341 203.844 466.308 203.183 466.308Z" fill="white"/>
<path d="M308.946 466.326C308.875 466.334 308.809 466.366 308.762 466.415C308.714 466.464 308.689 466.528 308.689 466.593C308.67 466.771 308.67 466.95 308.689 467.128V473.342L308.212 473.008C306.853 471.203 305.495 469.299 304.173 467.395L303.55 466.56C303.188 466.354 302.76 466.271 302.337 466.326C302.303 466.559 302.303 466.795 302.337 467.027V475.045C302.337 475.246 302.337 475.313 302.668 475.313C302.998 475.313 303.366 475.313 303.366 474.711V468.497L304.982 470.702L308.028 475.045C308.095 475.15 308.192 475.237 308.307 475.296C308.424 475.355 308.557 475.384 308.689 475.38C309.68 475.346 309.68 475.346 309.68 474.711V466.927C309.68 466.326 309.68 466.326 308.946 466.326Z" fill="white"/>
</g>
</g>
<defs>
<clipPath id="clip0_145_804">
<rect width="428" height="926" fill="white"/>
</clipPath>
<clipPath id="clip1_145_804">
<rect width="307" height="71" fill="white" transform="translate(60 407)"/>
</clipPath>
</defs>
</svg>
