<svg width="64" height="64" viewBox="0 0 64 64" fill="none" xmlns="http://www.w3.org/2000/svg">
<path opacity="0.5" d="M9.008 13.552C8 14.9867 8 19.2533 8 27.7787V31.976C8 47.0107 19.304 54.3093 26.3973 57.4053C28.32 58.2453 29.2827 58.6667 32 58.6667C34.72 58.6667 35.68 58.2453 37.6027 57.4053C44.696 54.3067 56 47.0133 56 31.976V27.7787C56 19.2507 56 14.9867 54.992 13.552C53.9867 12.12 49.9787 10.7467 41.96 8.00268L40.432 7.48001C36.2533 6.04801 34.1653 5.33334 32 5.33334C29.8373 5.33334 27.7467 6.04801 23.568 7.48001L22.04 8.00001C14.0213 10.7467 10.0133 12.12 9.008 13.552Z" fill="#4784C4"/>
<path d="M40.16 28C40.5136 27.6039 40.6954 27.0836 40.6654 26.5535C40.6354 26.0234 40.396 25.5269 40 25.1733C39.6039 24.8197 39.0836 24.6379 38.5535 24.6679C38.0234 24.6979 37.5269 24.9373 37.1733 25.3333L29.144 34.3307L26.824 31.7333C26.4694 31.3415 25.9742 31.106 25.4465 31.0781C24.9188 31.0502 24.4016 31.2323 24.0077 31.5846C23.6139 31.9369 23.3754 32.4308 23.3445 32.9583C23.3136 33.4858 23.4927 34.0041 23.8427 34.4L27.6507 38.6667C27.8383 38.8768 28.0682 39.045 28.3253 39.1601C28.5824 39.2752 28.8609 39.3348 29.1427 39.3348C29.4244 39.3348 29.7029 39.2752 29.96 39.1601C30.2171 39.045 30.447 38.8768 30.6347 38.6667L40.16 28Z" fill="#4784C4"/>
</svg>
