<svg width="24" height="25" viewBox="0 0 24 25" fill="none" xmlns="http://www.w3.org/2000/svg">
<path opacity="0.5" d="M13 15.6187C13 13.5446 13 12.5075 13.659 11.8631C14.318 11.2188 15.3787 11.2188 17.5 11.2188C19.6213 11.2188 20.682 11.2188 21.341 11.8631C22 12.5075 22 13.5446 22 15.6188V17.8188C22 19.8929 22 20.93 21.341 21.5744C20.682 22.2188 19.6213 22.2188 17.5 22.2188C15.3787 22.2188 14.318 22.2188 13.659 21.5744C13 20.93 13 19.8929 13 17.8188V15.6187Z" fill="#59A5F5"/>
<path d="M2 8.81875C2 10.8929 2 11.93 2.65901 12.5744C3.31802 13.2188 4.37868 13.2188 6.5 13.2188C8.62132 13.2188 9.68198 13.2188 10.341 12.5744C11 11.93 11 10.8929 11 8.81875V6.61875C11 4.54457 11 3.50748 10.341 2.86312C9.68198 2.21875 8.62132 2.21875 6.5 2.21875C4.37868 2.21875 3.31802 2.21875 2.65901 2.86312C2 3.50748 2 4.54457 2 6.61875V8.81875Z" fill="#59A5F5"/>
<path d="M13 5.71875C13 4.63155 13 4.08795 13.1713 3.65916C13.3996 3.08742 13.8376 2.63318 14.389 2.39636C14.8024 2.21875 15.3266 2.21875 16.375 2.21875H18.625C19.6734 2.21875 20.1976 2.21875 20.611 2.39636C21.1624 2.63318 21.6004 3.08742 21.8287 3.65916C22 4.08795 22 4.63155 22 5.71875C22 6.80595 22 7.34955 21.8287 7.77834C21.6004 8.35008 21.1624 8.80432 20.611 9.04114C20.1976 9.21875 19.6734 9.21875 18.625 9.21875H16.375C15.3266 9.21875 14.8024 9.21875 14.389 9.04114C13.8376 8.80432 13.3996 8.35008 13.1713 7.77834C13 7.34955 13 6.80595 13 5.71875Z" fill="#59A5F5"/>
<path opacity="0.5" d="M2 18.7188C2 19.8059 2 20.3495 2.17127 20.7783C2.39963 21.3501 2.83765 21.8043 3.38896 22.0411C3.80245 22.2188 4.32663 22.2188 5.375 22.2188H7.625C8.67337 22.2188 9.19755 22.2188 9.61104 22.0411C10.1624 21.8043 10.6004 21.3501 10.8287 20.7783C11 20.3495 11 19.8059 11 18.7188C11 17.6316 11 17.088 10.8287 16.6592C10.6004 16.0874 10.1624 15.6332 9.61104 15.3964C9.19755 15.2188 8.67337 15.2188 7.625 15.2188H5.375C4.32663 15.2188 3.80245 15.2188 3.38896 15.3964C2.83765 15.6332 2.39963 16.0874 2.17127 16.6592C2 17.088 2 17.6316 2 18.7188Z" fill="#59A5F5"/>
</svg>
